<svg width="16" height="16" viewBox="0 0 16 16" fill="none" xmlns="http://www.w3.org/2000/svg">
<path d="M2.54123 11.3196C2.17927 11.573 2.09124 12.0718 2.34461 12.4338C2.59799 12.7957 3.09681 12.8838 3.45877 12.6304L3 11.975L2.54123 11.3196ZM15.1807 4.13903C15.2575 3.70392 14.967 3.28896 14.5319 3.21217L7.44144 1.96092C7.00634 1.88414 6.59137 2.17461 6.51459 2.60972C6.43781 3.04482 6.72828 3.45979 7.16339 3.53657L13.466 4.6488L12.3538 10.9514C12.277 11.3865 12.5675 11.8015 13.0026 11.8783C13.4377 11.9551 13.8526 11.6646 13.9294 11.2295L15.1807 4.13903ZM3 11.975L3.45877 12.6304L14.8516 4.65539L14.3929 4L13.9341 3.34461L2.54123 11.3196L3 11.975Z" fill="#8CEDFB"/>
</svg>
