<svg width="116" height="20" viewBox="0 0 116 20" fill="none" xmlns="http://www.w3.org/2000/svg">
<g clip-path="url(#clip0_2037_2)">
<path d="M116 0.61512V18.7801H113.5V14.2899H111.408L109.443 18.7801H106.739L109.06 13.448C107.53 12.2489 106.739 9.85069 106.739 7.4525C106.739 4.03381 108.346 0.61512 111.433 0.61512H116ZM111.484 11.8152H113.5V3.11536H111.586C110.03 3.11536 109.213 5.28393 109.213 7.4525C109.213 9.64659 109.979 11.8152 111.484 11.8152Z" fill="white"/>
<path d="M93.168 18.7801V0.61512H95.6172V13.3459L100.592 0.61512H103.245V18.7801H100.822V5.92175L95.8468 18.7801H93.168Z" fill="white"/>
<path d="M80.8885 0.61512H89.0271V18.7801H86.5523V3.11536H83.3633C83.3633 7.09533 83.3122 10.3099 82.904 12.8357C82.4958 15.489 81.7049 17.8872 79.1537 19.1628L78.0566 16.9432C79.4088 16.1523 80.0976 14.9532 80.4803 12.402C80.8885 9.59556 80.8885 5.64111 80.8885 0.61512Z" fill="white"/>
<path d="M65.0225 18.7801L69.5127 0.61512H71.9364L76.4266 18.7801H73.8498L73.3651 16.7901H68.0329L67.5482 18.7801H65.0225ZM68.6963 14.2899H72.7528L70.7118 5.28393L68.6963 14.2899Z" fill="white"/>
<path d="M49.5283 18.7801V0.61512H52.6153L55.881 14.596L59.1721 0.61512H62.3101V18.7801H59.8354V6.61059L57.1056 18.7801H54.6819L51.9775 6.61059V18.7801H49.5283Z" fill="white"/>
<path d="M36.6239 19.3896C31.2917 19.3896 26.9546 15.0525 26.9546 9.66932C26.9546 4.3627 31.2917 3.8147e-05 36.6239 3.8147e-05C42.007 3.8147e-05 46.3442 4.3627 46.3442 9.66932C46.3442 15.0525 42.007 19.3896 36.6239 19.3896ZM36.6239 16.9149C40.6294 16.9149 43.8695 13.6748 43.8695 9.66932C43.8695 5.71487 40.6294 2.47476 36.6239 2.47476C32.6694 2.47476 29.4293 5.71487 29.4293 9.66932C29.4293 13.6748 32.6694 16.9149 36.6239 16.9149Z" fill="white"/>
<path d="M14.1143 18.7801V0.61512H16.6145V8.42198H21.2323V0.61512H23.758V18.7801H21.2323V10.8967H16.6145V18.7801H14.1143Z" fill="white"/>
<path d="M0 18.7801L4.49022 0.61512H6.91392L11.4041 18.7801H8.82737L8.34263 16.7901H3.01049L2.52575 18.7801H0ZM3.67382 14.2899H7.73033L5.68932 5.28393L3.67382 14.2899Z" fill="white"/>
</g>
<defs>
<clipPath id="clip0_2037_2">
<rect width="116" height="20" fill="white"/>
</clipPath>
</defs>
</svg>
